<mxfile host="app.diagrams.net" modified="2020-10-16T19:34:30.328Z" agent="5.0 (Windows NT 10.0; Win64; x64) AppleWebKit/537.36 (KHTML, like Gecko) Chrome/85.0.4183.121 Safari/537.36 OPR/71.0.3770.234" etag="hytwvZ9230qWAXFDWKjm" version="13.8.0" type="github" pages="4">
  <diagram id="C5RBs43oDa-KdzZeNtuy" name="Page-1">
    <mxGraphModel dx="1381" dy="805" grid="1" gridSize="10" guides="1" tooltips="1" connect="1" arrows="1" fold="1" page="1" pageScale="1" pageWidth="2336" pageHeight="1654" math="0" shadow="0">
      <root>
        <mxCell id="WIyWlLk6GJQsqaUBKTNV-0" />
        <mxCell id="WIyWlLk6GJQsqaUBKTNV-1" parent="WIyWlLk6GJQsqaUBKTNV-0" />
        <mxCell id="0J8Kc-48QxHh1UXPTMw_-21" style="edgeStyle=orthogonalEdgeStyle;rounded=0;orthogonalLoop=1;jettySize=auto;html=1;entryX=0;entryY=0.5;entryDx=0;entryDy=0;" edge="1" parent="WIyWlLk6GJQsqaUBKTNV-1" source="0J8Kc-48QxHh1UXPTMw_-2" target="0J8Kc-48QxHh1UXPTMw_-6">
          <mxGeometry relative="1" as="geometry" />
        </mxCell>
        <mxCell id="0J8Kc-48QxHh1UXPTMw_-31" value="Text" style="edgeLabel;html=1;align=center;verticalAlign=middle;resizable=0;points=[];" vertex="1" connectable="0" parent="0J8Kc-48QxHh1UXPTMw_-21">
          <mxGeometry x="-0.1688" y="-5" relative="1" as="geometry">
            <mxPoint as="offset" />
          </mxGeometry>
        </mxCell>
        <mxCell id="0J8Kc-48QxHh1UXPTMw_-24" style="edgeStyle=orthogonalEdgeStyle;rounded=0;orthogonalLoop=1;jettySize=auto;html=1;entryX=1;entryY=0.5;entryDx=0;entryDy=0;" edge="1" parent="WIyWlLk6GJQsqaUBKTNV-1" source="0J8Kc-48QxHh1UXPTMw_-23" target="0J8Kc-48QxHh1UXPTMw_-18">
          <mxGeometry relative="1" as="geometry" />
        </mxCell>
        <mxCell id="0J8Kc-48QxHh1UXPTMw_-32" style="edgeStyle=orthogonalEdgeStyle;rounded=0;orthogonalLoop=1;jettySize=auto;html=1;entryX=1;entryY=0.5;entryDx=0;entryDy=0;" edge="1" parent="WIyWlLk6GJQsqaUBKTNV-1" source="0J8Kc-48QxHh1UXPTMw_-26" target="0J8Kc-48QxHh1UXPTMw_-29">
          <mxGeometry relative="1" as="geometry" />
        </mxCell>
        <mxCell id="0J8Kc-48QxHh1UXPTMw_-5" value="CALENDAR" style="swimlane;fontStyle=0;childLayout=stackLayout;horizontal=1;startSize=26;fillColor=none;horizontalStack=0;resizeParent=1;resizeParentMax=0;resizeLast=0;collapsible=1;marginBottom=0;" vertex="1" parent="WIyWlLk6GJQsqaUBKTNV-1">
          <mxGeometry x="990" y="30" width="140" height="104" as="geometry" />
        </mxCell>
        <mxCell id="0J8Kc-48QxHh1UXPTMw_-6" value="ID_DATE : PK identy" style="text;strokeColor=none;fillColor=none;align=left;verticalAlign=top;spacingLeft=4;spacingRight=4;overflow=hidden;rotatable=0;points=[[0,0.5],[1,0.5]];portConstraint=eastwest;" vertex="1" parent="0J8Kc-48QxHh1UXPTMw_-5">
          <mxGeometry y="26" width="140" height="26" as="geometry" />
        </mxCell>
        <mxCell id="0J8Kc-48QxHh1UXPTMw_-7" value="WEEK" style="text;strokeColor=none;fillColor=none;align=left;verticalAlign=top;spacingLeft=4;spacingRight=4;overflow=hidden;rotatable=0;points=[[0,0.5],[1,0.5]];portConstraint=eastwest;" vertex="1" parent="0J8Kc-48QxHh1UXPTMw_-5">
          <mxGeometry y="52" width="140" height="26" as="geometry" />
        </mxCell>
        <mxCell id="0J8Kc-48QxHh1UXPTMw_-8" value="IS_HOLLIDAY" style="text;strokeColor=none;fillColor=none;align=left;verticalAlign=top;spacingLeft=4;spacingRight=4;overflow=hidden;rotatable=0;points=[[0,0.5],[1,0.5]];portConstraint=eastwest;" vertex="1" parent="0J8Kc-48QxHh1UXPTMw_-5">
          <mxGeometry y="78" width="140" height="26" as="geometry" />
        </mxCell>
        <mxCell id="0J8Kc-48QxHh1UXPTMw_-17" value="Classname" style="swimlane;fontStyle=0;childLayout=stackLayout;horizontal=1;startSize=26;fillColor=none;horizontalStack=0;resizeParent=1;resizeParentMax=0;resizeLast=0;collapsible=1;marginBottom=0;" vertex="1" parent="WIyWlLk6GJQsqaUBKTNV-1">
          <mxGeometry x="490" y="380" width="140" height="104" as="geometry" />
        </mxCell>
        <mxCell id="0J8Kc-48QxHh1UXPTMw_-18" value="ID_PRODUCT : PK" style="text;strokeColor=none;fillColor=none;align=left;verticalAlign=top;spacingLeft=4;spacingRight=4;overflow=hidden;rotatable=0;points=[[0,0.5],[1,0.5]];portConstraint=eastwest;" vertex="1" parent="0J8Kc-48QxHh1UXPTMw_-17">
          <mxGeometry y="26" width="140" height="26" as="geometry" />
        </mxCell>
        <mxCell id="0J8Kc-48QxHh1UXPTMw_-19" value="+ field: type" style="text;strokeColor=none;fillColor=none;align=left;verticalAlign=top;spacingLeft=4;spacingRight=4;overflow=hidden;rotatable=0;points=[[0,0.5],[1,0.5]];portConstraint=eastwest;" vertex="1" parent="0J8Kc-48QxHh1UXPTMw_-17">
          <mxGeometry y="52" width="140" height="26" as="geometry" />
        </mxCell>
        <mxCell id="0J8Kc-48QxHh1UXPTMw_-20" value="+ field: type" style="text;strokeColor=none;fillColor=none;align=left;verticalAlign=top;spacingLeft=4;spacingRight=4;overflow=hidden;rotatable=0;points=[[0,0.5],[1,0.5]];portConstraint=eastwest;" vertex="1" parent="0J8Kc-48QxHh1UXPTMw_-17">
          <mxGeometry y="78" width="140" height="26" as="geometry" />
        </mxCell>
        <mxCell id="0J8Kc-48QxHh1UXPTMw_-0" value="CORE" style="swimlane;fontStyle=0;childLayout=stackLayout;horizontal=1;startSize=26;fillColor=none;horizontalStack=0;resizeParent=1;resizeParentMax=0;resizeLast=0;collapsible=1;marginBottom=0;" vertex="1" parent="WIyWlLk6GJQsqaUBKTNV-1">
          <mxGeometry x="730" y="210" width="140" height="182" as="geometry">
            <mxRectangle x="515" y="280" width="90" height="26" as="alternateBounds" />
          </mxGeometry>
        </mxCell>
        <mxCell id="0J8Kc-48QxHh1UXPTMw_-1" value="ID : UQ Identy" style="text;strokeColor=none;fillColor=none;align=left;verticalAlign=top;spacingLeft=4;spacingRight=4;overflow=hidden;rotatable=0;points=[[0,0.5],[1,0.5]];portConstraint=eastwest;" vertex="1" parent="0J8Kc-48QxHh1UXPTMw_-0">
          <mxGeometry y="26" width="140" height="26" as="geometry" />
        </mxCell>
        <mxCell id="0J8Kc-48QxHh1UXPTMw_-26" value="COLLENCTION_ID : id" style="text;strokeColor=none;fillColor=none;align=left;verticalAlign=top;spacingLeft=4;spacingRight=4;overflow=hidden;rotatable=0;points=[[0,0.5],[1,0.5]];portConstraint=eastwest;" vertex="1" parent="0J8Kc-48QxHh1UXPTMw_-0">
          <mxGeometry y="52" width="140" height="26" as="geometry" />
        </mxCell>
        <mxCell id="0J8Kc-48QxHh1UXPTMw_-2" value="ID_DATE : id" style="text;strokeColor=none;fillColor=none;align=left;verticalAlign=top;spacingLeft=4;spacingRight=4;overflow=hidden;rotatable=0;points=[[0,0.5],[1,0.5]];portConstraint=eastwest;" vertex="1" parent="0J8Kc-48QxHh1UXPTMw_-0">
          <mxGeometry y="78" width="140" height="26" as="geometry" />
        </mxCell>
        <mxCell id="0J8Kc-48QxHh1UXPTMw_-3" value="ID_CLIENT : id" style="text;strokeColor=none;fillColor=none;align=left;verticalAlign=top;spacingLeft=4;spacingRight=4;overflow=hidden;rotatable=0;points=[[0,0.5],[1,0.5]];portConstraint=eastwest;" vertex="1" parent="0J8Kc-48QxHh1UXPTMw_-0">
          <mxGeometry y="104" width="140" height="26" as="geometry" />
        </mxCell>
        <mxCell id="0J8Kc-48QxHh1UXPTMw_-23" value="ID_PRODUCT : id" style="text;strokeColor=none;fillColor=none;align=left;verticalAlign=top;spacingLeft=4;spacingRight=4;overflow=hidden;rotatable=0;points=[[0,0.5],[1,0.5]];portConstraint=eastwest;" vertex="1" parent="0J8Kc-48QxHh1UXPTMw_-0">
          <mxGeometry y="130" width="140" height="26" as="geometry" />
        </mxCell>
        <mxCell id="0J8Kc-48QxHh1UXPTMw_-25" value="DATE : date" style="text;strokeColor=none;fillColor=none;align=left;verticalAlign=top;spacingLeft=4;spacingRight=4;overflow=hidden;rotatable=0;points=[[0,0.5],[1,0.5]];portConstraint=eastwest;" vertex="1" parent="0J8Kc-48QxHh1UXPTMw_-0">
          <mxGeometry y="156" width="140" height="26" as="geometry" />
        </mxCell>
        <mxCell id="0J8Kc-48QxHh1UXPTMw_-27" value="HISTORY" style="swimlane;fontStyle=0;childLayout=stackLayout;horizontal=1;startSize=26;fillColor=none;horizontalStack=0;resizeParent=1;resizeParentMax=0;resizeLast=0;collapsible=1;marginBottom=0;" vertex="1" parent="WIyWlLk6GJQsqaUBKTNV-1">
          <mxGeometry x="490" y="50" width="140" height="130" as="geometry" />
        </mxCell>
        <mxCell id="0J8Kc-48QxHh1UXPTMw_-28" value="ID : PK idemtiy&#xa;" style="text;strokeColor=none;fillColor=none;align=left;verticalAlign=top;spacingLeft=4;spacingRight=4;overflow=hidden;rotatable=0;points=[[0,0.5],[1,0.5]];portConstraint=eastwest;" vertex="1" parent="0J8Kc-48QxHh1UXPTMw_-27">
          <mxGeometry y="26" width="140" height="26" as="geometry" />
        </mxCell>
        <mxCell id="0J8Kc-48QxHh1UXPTMw_-29" value="COLLECTION_ID : id" style="text;strokeColor=none;fillColor=none;align=left;verticalAlign=top;spacingLeft=4;spacingRight=4;overflow=hidden;rotatable=0;points=[[0,0.5],[1,0.5]];portConstraint=eastwest;" vertex="1" parent="0J8Kc-48QxHh1UXPTMw_-27">
          <mxGeometry y="52" width="140" height="26" as="geometry" />
        </mxCell>
        <mxCell id="0J8Kc-48QxHh1UXPTMw_-30" value="+ field: type" style="text;strokeColor=none;fillColor=none;align=left;verticalAlign=top;spacingLeft=4;spacingRight=4;overflow=hidden;rotatable=0;points=[[0,0.5],[1,0.5]];portConstraint=eastwest;" vertex="1" parent="0J8Kc-48QxHh1UXPTMw_-27">
          <mxGeometry y="78" width="140" height="26" as="geometry" />
        </mxCell>
        <mxCell id="WJmVOJivP5oiOjwmf62t-1" value="GROUP NAME" style="text;strokeColor=none;fillColor=none;align=left;verticalAlign=top;spacingLeft=4;spacingRight=4;overflow=hidden;rotatable=0;points=[[0,0.5],[1,0.5]];portConstraint=eastwest;" vertex="1" parent="0J8Kc-48QxHh1UXPTMw_-27">
          <mxGeometry y="104" width="140" height="26" as="geometry" />
        </mxCell>
        <mxCell id="Zak5zkOjWT0ckZJG4Ucz-1" style="edgeStyle=orthogonalEdgeStyle;rounded=0;orthogonalLoop=1;jettySize=auto;html=1;entryX=0.5;entryY=0;entryDx=0;entryDy=0;" edge="1" parent="WIyWlLk6GJQsqaUBKTNV-1" source="Zak5zkOjWT0ckZJG4Ucz-0" target="0J8Kc-48QxHh1UXPTMw_-0">
          <mxGeometry relative="1" as="geometry" />
        </mxCell>
        <mxCell id="Zak5zkOjWT0ckZJG4Ucz-2" style="edgeStyle=orthogonalEdgeStyle;rounded=0;orthogonalLoop=1;jettySize=auto;html=1;entryX=0.5;entryY=0;entryDx=0;entryDy=0;" edge="1" parent="WIyWlLk6GJQsqaUBKTNV-1" source="Zak5zkOjWT0ckZJG4Ucz-0" target="0J8Kc-48QxHh1UXPTMw_-5">
          <mxGeometry relative="1" as="geometry" />
        </mxCell>
        <mxCell id="Zak5zkOjWT0ckZJG4Ucz-3" style="edgeStyle=orthogonalEdgeStyle;rounded=0;orthogonalLoop=1;jettySize=auto;html=1;entryX=0.429;entryY=1.231;entryDx=0;entryDy=0;entryPerimeter=0;" edge="1" parent="WIyWlLk6GJQsqaUBKTNV-1" source="Zak5zkOjWT0ckZJG4Ucz-0" target="0J8Kc-48QxHh1UXPTMw_-20">
          <mxGeometry relative="1" as="geometry">
            <Array as="points">
              <mxPoint x="1495" y="520" />
              <mxPoint x="550" y="520" />
            </Array>
          </mxGeometry>
        </mxCell>
        <mxCell id="Zak5zkOjWT0ckZJG4Ucz-4" style="edgeStyle=orthogonalEdgeStyle;rounded=0;orthogonalLoop=1;jettySize=auto;html=1;entryX=0.5;entryY=0;entryDx=0;entryDy=0;" edge="1" parent="WIyWlLk6GJQsqaUBKTNV-1" source="Zak5zkOjWT0ckZJG4Ucz-0" target="0J8Kc-48QxHh1UXPTMw_-27">
          <mxGeometry relative="1" as="geometry" />
        </mxCell>
        <mxCell id="Zak5zkOjWT0ckZJG4Ucz-0" value="" style="ellipse;html=1;shape=endState;fillColor=#000000;strokeColor=#ff0000;" vertex="1" parent="WIyWlLk6GJQsqaUBKTNV-1">
          <mxGeometry x="1480" y="550" width="30" height="30" as="geometry" />
        </mxCell>
        <mxCell id="Zak5zkOjWT0ckZJG4Ucz-5" style="edgeStyle=orthogonalEdgeStyle;rounded=0;orthogonalLoop=1;jettySize=auto;html=1;entryX=0;entryY=0.5;entryDx=0;entryDy=0;" edge="1" parent="WIyWlLk6GJQsqaUBKTNV-1" source="Zak5zkOjWT0ckZJG4Ucz-15" target="Zak5zkOjWT0ckZJG4Ucz-25">
          <mxGeometry relative="1" as="geometry" />
        </mxCell>
        <mxCell id="Zak5zkOjWT0ckZJG4Ucz-6" style="edgeStyle=orthogonalEdgeStyle;rounded=0;orthogonalLoop=1;jettySize=auto;html=1;entryX=1;entryY=0.5;entryDx=0;entryDy=0;" edge="1" parent="WIyWlLk6GJQsqaUBKTNV-1" source="Zak5zkOjWT0ckZJG4Ucz-17" target="Zak5zkOjWT0ckZJG4Ucz-9">
          <mxGeometry relative="1" as="geometry" />
        </mxCell>
        <mxCell id="Zak5zkOjWT0ckZJG4Ucz-7" style="edgeStyle=orthogonalEdgeStyle;rounded=0;orthogonalLoop=1;jettySize=auto;html=1;entryX=1;entryY=0.5;entryDx=0;entryDy=0;" edge="1" parent="WIyWlLk6GJQsqaUBKTNV-1" source="Zak5zkOjWT0ckZJG4Ucz-14" target="Zak5zkOjWT0ckZJG4Ucz-21">
          <mxGeometry relative="1" as="geometry" />
        </mxCell>
        <mxCell id="Zak5zkOjWT0ckZJG4Ucz-8" value="Classname" style="swimlane;fontStyle=0;childLayout=stackLayout;horizontal=1;startSize=26;fillColor=none;horizontalStack=0;resizeParent=1;resizeParentMax=0;resizeLast=0;collapsible=1;marginBottom=0;" vertex="1" parent="WIyWlLk6GJQsqaUBKTNV-1">
          <mxGeometry x="470" y="945" width="140" height="104" as="geometry" />
        </mxCell>
        <mxCell id="Zak5zkOjWT0ckZJG4Ucz-9" value="ID_PRODUCT : PK" style="text;strokeColor=none;fillColor=none;align=left;verticalAlign=top;spacingLeft=4;spacingRight=4;overflow=hidden;rotatable=0;points=[[0,0.5],[1,0.5]];portConstraint=eastwest;" vertex="1" parent="Zak5zkOjWT0ckZJG4Ucz-8">
          <mxGeometry y="26" width="140" height="26" as="geometry" />
        </mxCell>
        <mxCell id="Zak5zkOjWT0ckZJG4Ucz-10" value="+ field: type" style="text;strokeColor=none;fillColor=none;align=left;verticalAlign=top;spacingLeft=4;spacingRight=4;overflow=hidden;rotatable=0;points=[[0,0.5],[1,0.5]];portConstraint=eastwest;" vertex="1" parent="Zak5zkOjWT0ckZJG4Ucz-8">
          <mxGeometry y="52" width="140" height="26" as="geometry" />
        </mxCell>
        <mxCell id="Zak5zkOjWT0ckZJG4Ucz-11" value="+ field: type" style="text;strokeColor=none;fillColor=none;align=left;verticalAlign=top;spacingLeft=4;spacingRight=4;overflow=hidden;rotatable=0;points=[[0,0.5],[1,0.5]];portConstraint=eastwest;" vertex="1" parent="Zak5zkOjWT0ckZJG4Ucz-8">
          <mxGeometry y="78" width="140" height="26" as="geometry" />
        </mxCell>
        <mxCell id="Zak5zkOjWT0ckZJG4Ucz-12" value="CORE" style="swimlane;fontStyle=0;childLayout=stackLayout;horizontal=1;startSize=26;fillColor=none;horizontalStack=0;resizeParent=1;resizeParentMax=0;resizeLast=0;collapsible=1;marginBottom=0;" vertex="1" parent="WIyWlLk6GJQsqaUBKTNV-1">
          <mxGeometry x="710" y="775" width="140" height="182" as="geometry">
            <mxRectangle x="515" y="280" width="90" height="26" as="alternateBounds" />
          </mxGeometry>
        </mxCell>
        <mxCell id="Zak5zkOjWT0ckZJG4Ucz-13" value="ID : UQ Identy" style="text;strokeColor=none;fillColor=none;align=left;verticalAlign=top;spacingLeft=4;spacingRight=4;overflow=hidden;rotatable=0;points=[[0,0.5],[1,0.5]];portConstraint=eastwest;" vertex="1" parent="Zak5zkOjWT0ckZJG4Ucz-12">
          <mxGeometry y="26" width="140" height="26" as="geometry" />
        </mxCell>
        <mxCell id="Zak5zkOjWT0ckZJG4Ucz-14" value="COLLENCTION_ID : id" style="text;strokeColor=none;fillColor=none;align=left;verticalAlign=top;spacingLeft=4;spacingRight=4;overflow=hidden;rotatable=0;points=[[0,0.5],[1,0.5]];portConstraint=eastwest;" vertex="1" parent="Zak5zkOjWT0ckZJG4Ucz-12">
          <mxGeometry y="52" width="140" height="26" as="geometry" />
        </mxCell>
        <mxCell id="Zak5zkOjWT0ckZJG4Ucz-15" value="ID_DATE : id" style="text;strokeColor=none;fillColor=none;align=left;verticalAlign=top;spacingLeft=4;spacingRight=4;overflow=hidden;rotatable=0;points=[[0,0.5],[1,0.5]];portConstraint=eastwest;" vertex="1" parent="Zak5zkOjWT0ckZJG4Ucz-12">
          <mxGeometry y="78" width="140" height="26" as="geometry" />
        </mxCell>
        <mxCell id="Zak5zkOjWT0ckZJG4Ucz-16" value="ID_CLIENT : id" style="text;strokeColor=none;fillColor=none;align=left;verticalAlign=top;spacingLeft=4;spacingRight=4;overflow=hidden;rotatable=0;points=[[0,0.5],[1,0.5]];portConstraint=eastwest;" vertex="1" parent="Zak5zkOjWT0ckZJG4Ucz-12">
          <mxGeometry y="104" width="140" height="26" as="geometry" />
        </mxCell>
        <mxCell id="Zak5zkOjWT0ckZJG4Ucz-17" value="ID_PRODUCT : id" style="text;strokeColor=none;fillColor=none;align=left;verticalAlign=top;spacingLeft=4;spacingRight=4;overflow=hidden;rotatable=0;points=[[0,0.5],[1,0.5]];portConstraint=eastwest;" vertex="1" parent="Zak5zkOjWT0ckZJG4Ucz-12">
          <mxGeometry y="130" width="140" height="26" as="geometry" />
        </mxCell>
        <mxCell id="Zak5zkOjWT0ckZJG4Ucz-18" value="DATE : date" style="text;strokeColor=none;fillColor=none;align=left;verticalAlign=top;spacingLeft=4;spacingRight=4;overflow=hidden;rotatable=0;points=[[0,0.5],[1,0.5]];portConstraint=eastwest;" vertex="1" parent="Zak5zkOjWT0ckZJG4Ucz-12">
          <mxGeometry y="156" width="140" height="26" as="geometry" />
        </mxCell>
        <mxCell id="Zak5zkOjWT0ckZJG4Ucz-19" value="HISTORY" style="swimlane;fontStyle=0;childLayout=stackLayout;horizontal=1;startSize=26;fillColor=none;horizontalStack=0;resizeParent=1;resizeParentMax=0;resizeLast=0;collapsible=1;marginBottom=0;" vertex="1" parent="WIyWlLk6GJQsqaUBKTNV-1">
          <mxGeometry x="470" y="615" width="140" height="130" as="geometry" />
        </mxCell>
        <mxCell id="Zak5zkOjWT0ckZJG4Ucz-20" value="ID : PK idemtiy&#xa;" style="text;strokeColor=none;fillColor=none;align=left;verticalAlign=top;spacingLeft=4;spacingRight=4;overflow=hidden;rotatable=0;points=[[0,0.5],[1,0.5]];portConstraint=eastwest;" vertex="1" parent="Zak5zkOjWT0ckZJG4Ucz-19">
          <mxGeometry y="26" width="140" height="26" as="geometry" />
        </mxCell>
        <mxCell id="Zak5zkOjWT0ckZJG4Ucz-21" value="COLLECTION_ID : id" style="text;strokeColor=none;fillColor=none;align=left;verticalAlign=top;spacingLeft=4;spacingRight=4;overflow=hidden;rotatable=0;points=[[0,0.5],[1,0.5]];portConstraint=eastwest;" vertex="1" parent="Zak5zkOjWT0ckZJG4Ucz-19">
          <mxGeometry y="52" width="140" height="26" as="geometry" />
        </mxCell>
        <mxCell id="Zak5zkOjWT0ckZJG4Ucz-22" value="+ field: type" style="text;strokeColor=none;fillColor=none;align=left;verticalAlign=top;spacingLeft=4;spacingRight=4;overflow=hidden;rotatable=0;points=[[0,0.5],[1,0.5]];portConstraint=eastwest;" vertex="1" parent="Zak5zkOjWT0ckZJG4Ucz-19">
          <mxGeometry y="78" width="140" height="26" as="geometry" />
        </mxCell>
        <mxCell id="Zak5zkOjWT0ckZJG4Ucz-23" value="GROUP NAME" style="text;strokeColor=none;fillColor=none;align=left;verticalAlign=top;spacingLeft=4;spacingRight=4;overflow=hidden;rotatable=0;points=[[0,0.5],[1,0.5]];portConstraint=eastwest;" vertex="1" parent="Zak5zkOjWT0ckZJG4Ucz-19">
          <mxGeometry y="104" width="140" height="26" as="geometry" />
        </mxCell>
        <mxCell id="Zak5zkOjWT0ckZJG4Ucz-24" value="CALENDAR" style="swimlane;fontStyle=0;childLayout=stackLayout;horizontal=1;startSize=26;fillColor=none;horizontalStack=0;resizeParent=1;resizeParentMax=0;resizeLast=0;collapsible=1;marginBottom=0;" vertex="1" parent="WIyWlLk6GJQsqaUBKTNV-1">
          <mxGeometry x="1020" y="610" width="140" height="104" as="geometry" />
        </mxCell>
        <mxCell id="Zak5zkOjWT0ckZJG4Ucz-25" value="ID_DATE : PK identy" style="text;strokeColor=none;fillColor=none;align=left;verticalAlign=top;spacingLeft=4;spacingRight=4;overflow=hidden;rotatable=0;points=[[0,0.5],[1,0.5]];portConstraint=eastwest;" vertex="1" parent="Zak5zkOjWT0ckZJG4Ucz-24">
          <mxGeometry y="26" width="140" height="26" as="geometry" />
        </mxCell>
        <mxCell id="Zak5zkOjWT0ckZJG4Ucz-26" value="WEEK" style="text;strokeColor=none;fillColor=none;align=left;verticalAlign=top;spacingLeft=4;spacingRight=4;overflow=hidden;rotatable=0;points=[[0,0.5],[1,0.5]];portConstraint=eastwest;" vertex="1" parent="Zak5zkOjWT0ckZJG4Ucz-24">
          <mxGeometry y="52" width="140" height="26" as="geometry" />
        </mxCell>
        <mxCell id="Zak5zkOjWT0ckZJG4Ucz-27" value="IS_HOLLIDAY" style="text;strokeColor=none;fillColor=none;align=left;verticalAlign=top;spacingLeft=4;spacingRight=4;overflow=hidden;rotatable=0;points=[[0,0.5],[1,0.5]];portConstraint=eastwest;" vertex="1" parent="Zak5zkOjWT0ckZJG4Ucz-24">
          <mxGeometry y="78" width="140" height="26" as="geometry" />
        </mxCell>
      </root>
    </mxGraphModel>
  </diagram>
  <diagram id="iVqY2bFfzcr7-HoixMGU" name="Page-2">
    <mxGraphModel dx="1381" dy="805" grid="1" gridSize="10" guides="1" tooltips="1" connect="1" arrows="1" fold="1" page="1" pageScale="1" pageWidth="2336" pageHeight="1654" math="0" shadow="0">
      <root>
        <mxCell id="2OqTaur5Tk5WZ8-Pk8KK-0" />
        <mxCell id="2OqTaur5Tk5WZ8-Pk8KK-1" parent="2OqTaur5Tk5WZ8-Pk8KK-0" />
        <mxCell id="U1vVxL5yiqtW5dhLI0sU-0" style="edgeStyle=orthogonalEdgeStyle;rounded=0;orthogonalLoop=1;jettySize=auto;html=1;entryX=0;entryY=0.5;entryDx=0;entryDy=0;" edge="1" parent="2OqTaur5Tk5WZ8-Pk8KK-1" source="2OqTaur5Tk5WZ8-Pk8KK-4" target="2OqTaur5Tk5WZ8-Pk8KK-8">
          <mxGeometry relative="1" as="geometry" />
        </mxCell>
        <mxCell id="U1vVxL5yiqtW5dhLI0sU-5" style="edgeStyle=orthogonalEdgeStyle;rounded=0;orthogonalLoop=1;jettySize=auto;html=1;entryX=0;entryY=0.5;entryDx=0;entryDy=0;" edge="1" parent="2OqTaur5Tk5WZ8-Pk8KK-1" source="2OqTaur5Tk5WZ8-Pk8KK-9" target="U1vVxL5yiqtW5dhLI0sU-3">
          <mxGeometry relative="1" as="geometry" />
        </mxCell>
        <mxCell id="2OqTaur5Tk5WZ8-Pk8KK-2" value="CORE" style="swimlane;fontStyle=0;childLayout=stackLayout;horizontal=1;startSize=26;fillColor=none;horizontalStack=0;resizeParent=1;resizeParentMax=0;resizeLast=0;collapsible=1;marginBottom=0;" vertex="1" parent="2OqTaur5Tk5WZ8-Pk8KK-1">
          <mxGeometry x="590" y="420" width="140" height="104" as="geometry" />
        </mxCell>
        <mxCell id="2OqTaur5Tk5WZ8-Pk8KK-3" value="ID : PK identy&#xa;" style="text;strokeColor=none;fillColor=none;align=left;verticalAlign=top;spacingLeft=4;spacingRight=4;overflow=hidden;rotatable=0;points=[[0,0.5],[1,0.5]];portConstraint=eastwest;" vertex="1" parent="2OqTaur5Tk5WZ8-Pk8KK-2">
          <mxGeometry y="26" width="140" height="26" as="geometry" />
        </mxCell>
        <mxCell id="2OqTaur5Tk5WZ8-Pk8KK-4" value="COLLECTION_ID : id" style="text;strokeColor=none;fillColor=none;align=left;verticalAlign=top;spacingLeft=4;spacingRight=4;overflow=hidden;rotatable=0;points=[[0,0.5],[1,0.5]];portConstraint=eastwest;" vertex="1" parent="2OqTaur5Tk5WZ8-Pk8KK-2">
          <mxGeometry y="52" width="140" height="26" as="geometry" />
        </mxCell>
        <mxCell id="2OqTaur5Tk5WZ8-Pk8KK-5" value="+ field: type" style="text;strokeColor=none;fillColor=none;align=left;verticalAlign=top;spacingLeft=4;spacingRight=4;overflow=hidden;rotatable=0;points=[[0,0.5],[1,0.5]];portConstraint=eastwest;" vertex="1" parent="2OqTaur5Tk5WZ8-Pk8KK-2">
          <mxGeometry y="78" width="140" height="26" as="geometry" />
        </mxCell>
        <mxCell id="2OqTaur5Tk5WZ8-Pk8KK-6" value="HISTORY" style="swimlane;fontStyle=0;childLayout=stackLayout;horizontal=1;startSize=26;fillColor=none;horizontalStack=0;resizeParent=1;resizeParentMax=0;resizeLast=0;collapsible=1;marginBottom=0;" vertex="1" parent="2OqTaur5Tk5WZ8-Pk8KK-1">
          <mxGeometry x="830" y="280" width="140" height="104" as="geometry" />
        </mxCell>
        <mxCell id="2OqTaur5Tk5WZ8-Pk8KK-7" value="ID : PK identy" style="text;strokeColor=none;fillColor=none;align=left;verticalAlign=top;spacingLeft=4;spacingRight=4;overflow=hidden;rotatable=0;points=[[0,0.5],[1,0.5]];portConstraint=eastwest;" vertex="1" parent="2OqTaur5Tk5WZ8-Pk8KK-6">
          <mxGeometry y="26" width="140" height="26" as="geometry" />
        </mxCell>
        <mxCell id="2OqTaur5Tk5WZ8-Pk8KK-8" value="COLLECTION_ID : id" style="text;strokeColor=none;fillColor=none;align=left;verticalAlign=top;spacingLeft=4;spacingRight=4;overflow=hidden;rotatable=0;points=[[0,0.5],[1,0.5]];portConstraint=eastwest;" vertex="1" parent="2OqTaur5Tk5WZ8-Pk8KK-6">
          <mxGeometry y="52" width="140" height="26" as="geometry" />
        </mxCell>
        <mxCell id="2OqTaur5Tk5WZ8-Pk8KK-9" value="GROUP_ID : id" style="text;strokeColor=none;fillColor=none;align=left;verticalAlign=top;spacingLeft=4;spacingRight=4;overflow=hidden;rotatable=0;points=[[0,0.5],[1,0.5]];portConstraint=eastwest;" vertex="1" parent="2OqTaur5Tk5WZ8-Pk8KK-6">
          <mxGeometry y="78" width="140" height="26" as="geometry" />
        </mxCell>
        <mxCell id="U1vVxL5yiqtW5dhLI0sU-1" value="GROUPS" style="swimlane;fontStyle=0;childLayout=stackLayout;horizontal=1;startSize=26;fillColor=none;horizontalStack=0;resizeParent=1;resizeParentMax=0;resizeLast=0;collapsible=1;marginBottom=0;" vertex="1" parent="2OqTaur5Tk5WZ8-Pk8KK-1">
          <mxGeometry x="1068" y="160" width="140" height="104" as="geometry" />
        </mxCell>
        <mxCell id="U1vVxL5yiqtW5dhLI0sU-2" value="GROUP_ID : PK identy" style="text;strokeColor=none;fillColor=none;align=left;verticalAlign=top;spacingLeft=4;spacingRight=4;overflow=hidden;rotatable=0;points=[[0,0.5],[1,0.5]];portConstraint=eastwest;" vertex="1" parent="U1vVxL5yiqtW5dhLI0sU-1">
          <mxGeometry y="26" width="140" height="26" as="geometry" />
        </mxCell>
        <mxCell id="U1vVxL5yiqtW5dhLI0sU-3" value="NAME : string" style="text;strokeColor=none;fillColor=none;align=left;verticalAlign=top;spacingLeft=4;spacingRight=4;overflow=hidden;rotatable=0;points=[[0,0.5],[1,0.5]];portConstraint=eastwest;" vertex="1" parent="U1vVxL5yiqtW5dhLI0sU-1">
          <mxGeometry y="52" width="140" height="26" as="geometry" />
        </mxCell>
        <mxCell id="U1vVxL5yiqtW5dhLI0sU-4" value="+ field: type" style="text;strokeColor=none;fillColor=none;align=left;verticalAlign=top;spacingLeft=4;spacingRight=4;overflow=hidden;rotatable=0;points=[[0,0.5],[1,0.5]];portConstraint=eastwest;" vertex="1" parent="U1vVxL5yiqtW5dhLI0sU-1">
          <mxGeometry y="78" width="140" height="26" as="geometry" />
        </mxCell>
      </root>
    </mxGraphModel>
  </diagram>
  <diagram id="pLe2ZqIWWcjRNUN3iagP" name="Page-3">
    <mxGraphModel dx="1381" dy="805" grid="1" gridSize="10" guides="1" tooltips="1" connect="1" arrows="1" fold="1" page="1" pageScale="1" pageWidth="2336" pageHeight="1654" math="0" shadow="0">
      <root>
        <mxCell id="GNYzZTDx1E489J-W9k-4-0" />
        <mxCell id="GNYzZTDx1E489J-W9k-4-1" parent="GNYzZTDx1E489J-W9k-4-0" />
        <mxCell id="GNYzZTDx1E489J-W9k-4-18" style="edgeStyle=orthogonalEdgeStyle;rounded=0;orthogonalLoop=1;jettySize=auto;html=1;entryX=0;entryY=0.5;entryDx=0;entryDy=0;" edge="1" parent="GNYzZTDx1E489J-W9k-4-1" source="GNYzZTDx1E489J-W9k-4-3" target="GNYzZTDx1E489J-W9k-4-15">
          <mxGeometry relative="1" as="geometry" />
        </mxCell>
        <mxCell id="GNYzZTDx1E489J-W9k-4-19" style="edgeStyle=orthogonalEdgeStyle;rounded=0;orthogonalLoop=1;jettySize=auto;html=1;entryX=0;entryY=0.5;entryDx=0;entryDy=0;" edge="1" parent="GNYzZTDx1E489J-W9k-4-1" source="GNYzZTDx1E489J-W9k-4-16" target="GNYzZTDx1E489J-W9k-4-11">
          <mxGeometry relative="1" as="geometry" />
        </mxCell>
        <mxCell id="GNYzZTDx1E489J-W9k-4-10" value="FACT TABLE(SATELLIT)" style="swimlane;fontStyle=0;childLayout=stackLayout;horizontal=1;startSize=26;fillColor=none;horizontalStack=0;resizeParent=1;resizeParentMax=0;resizeLast=0;collapsible=1;marginBottom=0;" vertex="1" parent="GNYzZTDx1E489J-W9k-4-1">
          <mxGeometry x="1098" y="570" width="162" height="104" as="geometry" />
        </mxCell>
        <mxCell id="GNYzZTDx1E489J-W9k-4-11" value="ID_SATELLIT : PK identy" style="text;strokeColor=none;fillColor=none;align=left;verticalAlign=top;spacingLeft=4;spacingRight=4;overflow=hidden;rotatable=0;points=[[0,0.5],[1,0.5]];portConstraint=eastwest;" vertex="1" parent="GNYzZTDx1E489J-W9k-4-10">
          <mxGeometry y="26" width="162" height="26" as="geometry" />
        </mxCell>
        <mxCell id="GNYzZTDx1E489J-W9k-4-12" value="DATE_PROLONG" style="text;strokeColor=none;fillColor=none;align=left;verticalAlign=top;spacingLeft=4;spacingRight=4;overflow=hidden;rotatable=0;points=[[0,0.5],[1,0.5]];portConstraint=eastwest;" vertex="1" parent="GNYzZTDx1E489J-W9k-4-10">
          <mxGeometry y="52" width="162" height="26" as="geometry" />
        </mxCell>
        <mxCell id="GNYzZTDx1E489J-W9k-4-13" value="+ field: type" style="text;strokeColor=none;fillColor=none;align=left;verticalAlign=top;spacingLeft=4;spacingRight=4;overflow=hidden;rotatable=0;points=[[0,0.5],[1,0.5]];portConstraint=eastwest;" vertex="1" parent="GNYzZTDx1E489J-W9k-4-10">
          <mxGeometry y="78" width="162" height="26" as="geometry" />
        </mxCell>
        <mxCell id="GNYzZTDx1E489J-W9k-4-14" value="FACT TABLE(REL)" style="swimlane;fontStyle=0;childLayout=stackLayout;horizontal=1;startSize=26;fillColor=none;horizontalStack=0;resizeParent=1;resizeParentMax=0;resizeLast=0;collapsible=1;marginBottom=0;" vertex="1" parent="GNYzZTDx1E489J-W9k-4-1">
          <mxGeometry x="810" y="460" width="140" height="78" as="geometry" />
        </mxCell>
        <mxCell id="GNYzZTDx1E489J-W9k-4-15" value="ID_HAB" style="text;strokeColor=none;fillColor=none;align=left;verticalAlign=top;spacingLeft=4;spacingRight=4;overflow=hidden;rotatable=0;points=[[0,0.5],[1,0.5]];portConstraint=eastwest;" vertex="1" parent="GNYzZTDx1E489J-W9k-4-14">
          <mxGeometry y="26" width="140" height="26" as="geometry" />
        </mxCell>
        <mxCell id="GNYzZTDx1E489J-W9k-4-16" value="ID_SATELLIT" style="text;strokeColor=none;fillColor=none;align=left;verticalAlign=top;spacingLeft=4;spacingRight=4;overflow=hidden;rotatable=0;points=[[0,0.5],[1,0.5]];portConstraint=eastwest;" vertex="1" parent="GNYzZTDx1E489J-W9k-4-14">
          <mxGeometry y="52" width="140" height="26" as="geometry" />
        </mxCell>
        <mxCell id="GNYzZTDx1E489J-W9k-4-2" value="FACT TABLE(HAB)" style="swimlane;fontStyle=0;childLayout=stackLayout;horizontal=1;startSize=26;fillColor=none;horizontalStack=0;resizeParent=1;resizeParentMax=0;resizeLast=0;collapsible=1;marginBottom=0;" vertex="1" parent="GNYzZTDx1E489J-W9k-4-1">
          <mxGeometry x="530" y="330" width="140" height="104" as="geometry" />
        </mxCell>
        <mxCell id="GNYzZTDx1E489J-W9k-4-3" value="ID : PK identy" style="text;strokeColor=none;fillColor=none;align=left;verticalAlign=top;spacingLeft=4;spacingRight=4;overflow=hidden;rotatable=0;points=[[0,0.5],[1,0.5]];portConstraint=eastwest;" vertex="1" parent="GNYzZTDx1E489J-W9k-4-2">
          <mxGeometry y="26" width="140" height="26" as="geometry" />
        </mxCell>
        <mxCell id="GNYzZTDx1E489J-W9k-4-4" value="OPEN_DATE : date" style="text;strokeColor=none;fillColor=none;align=left;verticalAlign=top;spacingLeft=4;spacingRight=4;overflow=hidden;rotatable=0;points=[[0,0.5],[1,0.5]];portConstraint=eastwest;" vertex="1" parent="GNYzZTDx1E489J-W9k-4-2">
          <mxGeometry y="52" width="140" height="26" as="geometry" />
        </mxCell>
        <mxCell id="GNYzZTDx1E489J-W9k-4-5" value="+ field: type" style="text;strokeColor=none;fillColor=none;align=left;verticalAlign=top;spacingLeft=4;spacingRight=4;overflow=hidden;rotatable=0;points=[[0,0.5],[1,0.5]];portConstraint=eastwest;" vertex="1" parent="GNYzZTDx1E489J-W9k-4-2">
          <mxGeometry y="78" width="140" height="26" as="geometry" />
        </mxCell>
        <mxCell id="GNYzZTDx1E489J-W9k-4-6" value="DICT" style="swimlane;fontStyle=0;childLayout=stackLayout;horizontal=1;startSize=26;fillColor=none;horizontalStack=0;resizeParent=1;resizeParentMax=0;resizeLast=0;collapsible=1;marginBottom=0;" vertex="1" parent="GNYzZTDx1E489J-W9k-4-1">
          <mxGeometry x="1109" y="250" width="140" height="104" as="geometry" />
        </mxCell>
        <mxCell id="GNYzZTDx1E489J-W9k-4-7" value="ID : PK identy" style="text;strokeColor=none;fillColor=none;align=left;verticalAlign=top;spacingLeft=4;spacingRight=4;overflow=hidden;rotatable=0;points=[[0,0.5],[1,0.5]];portConstraint=eastwest;" vertex="1" parent="GNYzZTDx1E489J-W9k-4-6">
          <mxGeometry y="26" width="140" height="26" as="geometry" />
        </mxCell>
        <mxCell id="GNYzZTDx1E489J-W9k-4-8" value="+ field: type" style="text;strokeColor=none;fillColor=none;align=left;verticalAlign=top;spacingLeft=4;spacingRight=4;overflow=hidden;rotatable=0;points=[[0,0.5],[1,0.5]];portConstraint=eastwest;" vertex="1" parent="GNYzZTDx1E489J-W9k-4-6">
          <mxGeometry y="52" width="140" height="26" as="geometry" />
        </mxCell>
        <mxCell id="GNYzZTDx1E489J-W9k-4-9" value="+ field: type" style="text;strokeColor=none;fillColor=none;align=left;verticalAlign=top;spacingLeft=4;spacingRight=4;overflow=hidden;rotatable=0;points=[[0,0.5],[1,0.5]];portConstraint=eastwest;" vertex="1" parent="GNYzZTDx1E489J-W9k-4-6">
          <mxGeometry y="78" width="140" height="26" as="geometry" />
        </mxCell>
        <mxCell id="GNYzZTDx1E489J-W9k-4-21" style="edgeStyle=orthogonalEdgeStyle;rounded=0;orthogonalLoop=1;jettySize=auto;html=1;entryX=0;entryY=0.5;entryDx=0;entryDy=0;" edge="1" parent="GNYzZTDx1E489J-W9k-4-1" source="GNYzZTDx1E489J-W9k-4-28" target="GNYzZTDx1E489J-W9k-4-23">
          <mxGeometry relative="1" as="geometry" />
        </mxCell>
        <mxCell id="GNYzZTDx1E489J-W9k-4-29" style="edgeStyle=orthogonalEdgeStyle;rounded=0;orthogonalLoop=1;jettySize=auto;html=1;entryX=0;entryY=0.5;entryDx=0;entryDy=0;" edge="1" parent="GNYzZTDx1E489J-W9k-4-1" source="GNYzZTDx1E489J-W9k-4-3" target="GNYzZTDx1E489J-W9k-4-27">
          <mxGeometry relative="1" as="geometry" />
        </mxCell>
        <mxCell id="GNYzZTDx1E489J-W9k-4-22" value="FACT TABLE(SATELLIT)" style="swimlane;fontStyle=0;childLayout=stackLayout;horizontal=1;startSize=26;fillColor=none;horizontalStack=0;resizeParent=1;resizeParentMax=0;resizeLast=0;collapsible=1;marginBottom=0;" vertex="1" parent="GNYzZTDx1E489J-W9k-4-1">
          <mxGeometry x="818" y="700" width="162" height="104" as="geometry" />
        </mxCell>
        <mxCell id="GNYzZTDx1E489J-W9k-4-23" value="ID_SATELLIT : PK identy" style="text;strokeColor=none;fillColor=none;align=left;verticalAlign=top;spacingLeft=4;spacingRight=4;overflow=hidden;rotatable=0;points=[[0,0.5],[1,0.5]];portConstraint=eastwest;" vertex="1" parent="GNYzZTDx1E489J-W9k-4-22">
          <mxGeometry y="26" width="162" height="26" as="geometry" />
        </mxCell>
        <mxCell id="GNYzZTDx1E489J-W9k-4-24" value="DATE_PAY" style="text;strokeColor=none;fillColor=none;align=left;verticalAlign=top;spacingLeft=4;spacingRight=4;overflow=hidden;rotatable=0;points=[[0,0.5],[1,0.5]];portConstraint=eastwest;" vertex="1" parent="GNYzZTDx1E489J-W9k-4-22">
          <mxGeometry y="52" width="162" height="26" as="geometry" />
        </mxCell>
        <mxCell id="GNYzZTDx1E489J-W9k-4-25" value="+ field: type" style="text;strokeColor=none;fillColor=none;align=left;verticalAlign=top;spacingLeft=4;spacingRight=4;overflow=hidden;rotatable=0;points=[[0,0.5],[1,0.5]];portConstraint=eastwest;" vertex="1" parent="GNYzZTDx1E489J-W9k-4-22">
          <mxGeometry y="78" width="162" height="26" as="geometry" />
        </mxCell>
        <mxCell id="GNYzZTDx1E489J-W9k-4-26" value="FACT TABLE(REL)" style="swimlane;fontStyle=0;childLayout=stackLayout;horizontal=1;startSize=26;fillColor=none;horizontalStack=0;resizeParent=1;resizeParentMax=0;resizeLast=0;collapsible=1;marginBottom=0;" vertex="1" parent="GNYzZTDx1E489J-W9k-4-1">
          <mxGeometry x="530" y="590" width="140" height="78" as="geometry" />
        </mxCell>
        <mxCell id="GNYzZTDx1E489J-W9k-4-27" value="ID_HAB" style="text;strokeColor=none;fillColor=none;align=left;verticalAlign=top;spacingLeft=4;spacingRight=4;overflow=hidden;rotatable=0;points=[[0,0.5],[1,0.5]];portConstraint=eastwest;" vertex="1" parent="GNYzZTDx1E489J-W9k-4-26">
          <mxGeometry y="26" width="140" height="26" as="geometry" />
        </mxCell>
        <mxCell id="GNYzZTDx1E489J-W9k-4-28" value="ID_SATELLIT" style="text;strokeColor=none;fillColor=none;align=left;verticalAlign=top;spacingLeft=4;spacingRight=4;overflow=hidden;rotatable=0;points=[[0,0.5],[1,0.5]];portConstraint=eastwest;" vertex="1" parent="GNYzZTDx1E489J-W9k-4-26">
          <mxGeometry y="52" width="140" height="26" as="geometry" />
        </mxCell>
        <mxCell id="GNYzZTDx1E489J-W9k-4-30" value="FACT(HAB)" style="swimlane;fontStyle=0;childLayout=stackLayout;horizontal=1;startSize=26;fillColor=none;horizontalStack=0;resizeParent=1;resizeParentMax=0;resizeLast=0;collapsible=1;marginBottom=0;" vertex="1" parent="GNYzZTDx1E489J-W9k-4-1">
          <mxGeometry x="530" y="90" width="140" height="104" as="geometry" />
        </mxCell>
        <mxCell id="GNYzZTDx1E489J-W9k-4-31" value="+ field: type" style="text;strokeColor=none;fillColor=none;align=left;verticalAlign=top;spacingLeft=4;spacingRight=4;overflow=hidden;rotatable=0;points=[[0,0.5],[1,0.5]];portConstraint=eastwest;" vertex="1" parent="GNYzZTDx1E489J-W9k-4-30">
          <mxGeometry y="26" width="140" height="26" as="geometry" />
        </mxCell>
        <mxCell id="GNYzZTDx1E489J-W9k-4-32" value="+ field: type" style="text;strokeColor=none;fillColor=none;align=left;verticalAlign=top;spacingLeft=4;spacingRight=4;overflow=hidden;rotatable=0;points=[[0,0.5],[1,0.5]];portConstraint=eastwest;" vertex="1" parent="GNYzZTDx1E489J-W9k-4-30">
          <mxGeometry y="52" width="140" height="26" as="geometry" />
        </mxCell>
        <mxCell id="GNYzZTDx1E489J-W9k-4-33" value="+ field: type" style="text;strokeColor=none;fillColor=none;align=left;verticalAlign=top;spacingLeft=4;spacingRight=4;overflow=hidden;rotatable=0;points=[[0,0.5],[1,0.5]];portConstraint=eastwest;" vertex="1" parent="GNYzZTDx1E489J-W9k-4-30">
          <mxGeometry y="78" width="140" height="26" as="geometry" />
        </mxCell>
        <mxCell id="GNYzZTDx1E489J-W9k-4-39" style="edgeStyle=orthogonalEdgeStyle;rounded=0;orthogonalLoop=1;jettySize=auto;html=1;entryX=0;entryY=0.5;entryDx=0;entryDy=0;" edge="1" parent="GNYzZTDx1E489J-W9k-4-1" source="GNYzZTDx1E489J-W9k-4-36" target="GNYzZTDx1E489J-W9k-4-3">
          <mxGeometry relative="1" as="geometry" />
        </mxCell>
        <mxCell id="GNYzZTDx1E489J-W9k-4-34" value="Classname" style="swimlane;fontStyle=0;childLayout=stackLayout;horizontal=1;startSize=26;fillColor=none;horizontalStack=0;resizeParent=1;resizeParentMax=0;resizeLast=0;collapsible=1;marginBottom=0;" vertex="1" parent="GNYzZTDx1E489J-W9k-4-1">
          <mxGeometry x="550" y="210" width="140" height="78" as="geometry" />
        </mxCell>
        <mxCell id="GNYzZTDx1E489J-W9k-4-35" value="HAB_1" style="text;strokeColor=none;fillColor=none;align=left;verticalAlign=top;spacingLeft=4;spacingRight=4;overflow=hidden;rotatable=0;points=[[0,0.5],[1,0.5]];portConstraint=eastwest;" vertex="1" parent="GNYzZTDx1E489J-W9k-4-34">
          <mxGeometry y="26" width="140" height="26" as="geometry" />
        </mxCell>
        <mxCell id="GNYzZTDx1E489J-W9k-4-36" value="HAB2" style="text;strokeColor=none;fillColor=none;align=left;verticalAlign=top;spacingLeft=4;spacingRight=4;overflow=hidden;rotatable=0;points=[[0,0.5],[1,0.5]];portConstraint=eastwest;" vertex="1" parent="GNYzZTDx1E489J-W9k-4-34">
          <mxGeometry y="52" width="140" height="26" as="geometry" />
        </mxCell>
        <mxCell id="GNYzZTDx1E489J-W9k-4-40" style="edgeStyle=orthogonalEdgeStyle;rounded=0;orthogonalLoop=1;jettySize=auto;html=1;entryX=1;entryY=0.5;entryDx=0;entryDy=0;" edge="1" parent="GNYzZTDx1E489J-W9k-4-1" source="GNYzZTDx1E489J-W9k-4-31" target="GNYzZTDx1E489J-W9k-4-35">
          <mxGeometry relative="1" as="geometry" />
        </mxCell>
      </root>
    </mxGraphModel>
  </diagram>
  <diagram id="PT9ywqVgwYNpHnHLuBHt" name="Page-4">
    <mxGraphModel dx="1381" dy="805" grid="1" gridSize="10" guides="1" tooltips="1" connect="1" arrows="1" fold="1" page="1" pageScale="1" pageWidth="2336" pageHeight="1654" math="0" shadow="0">
      <root>
        <mxCell id="l8JqauWSiTEtrcUZMcMG-0" />
        <mxCell id="l8JqauWSiTEtrcUZMcMG-1" parent="l8JqauWSiTEtrcUZMcMG-0" />
        <mxCell id="pc_kvRpI7iRuMpzhnwKP-37" style="edgeStyle=orthogonalEdgeStyle;rounded=0;orthogonalLoop=1;jettySize=auto;html=1;entryX=1;entryY=0.5;entryDx=0;entryDy=0;" edge="1" parent="l8JqauWSiTEtrcUZMcMG-1" source="pc_kvRpI7iRuMpzhnwKP-36" target="pc_kvRpI7iRuMpzhnwKP-34">
          <mxGeometry relative="1" as="geometry" />
        </mxCell>
        <mxCell id="pc_kvRpI7iRuMpzhnwKP-36" value="SELECT *&lt;br&gt;&amp;nbsp;FROM HP_PROBSUMMARYM1&lt;br&gt;WHERE :open_dt" style="text;html=1;resizable=0;autosize=1;align=center;verticalAlign=middle;points=[];fillColor=none;strokeColor=none;rounded=0;" vertex="1" parent="l8JqauWSiTEtrcUZMcMG-1">
          <mxGeometry x="620" y="480" width="190" height="50" as="geometry" />
        </mxCell>
        <mxCell id="pc_kvRpI7iRuMpzhnwKP-38" value="Classname" style="swimlane;fontStyle=0;childLayout=stackLayout;horizontal=1;startSize=26;fillColor=none;horizontalStack=0;resizeParent=1;resizeParentMax=0;resizeLast=0;collapsible=1;marginBottom=0;" vertex="1" parent="l8JqauWSiTEtrcUZMcMG-1">
          <mxGeometry x="960" y="60" width="140" height="104" as="geometry" />
        </mxCell>
        <mxCell id="pc_kvRpI7iRuMpzhnwKP-39" value="id" style="text;strokeColor=none;fillColor=none;align=left;verticalAlign=top;spacingLeft=4;spacingRight=4;overflow=hidden;rotatable=0;points=[[0,0.5],[1,0.5]];portConstraint=eastwest;" vertex="1" parent="pc_kvRpI7iRuMpzhnwKP-38">
          <mxGeometry y="26" width="140" height="26" as="geometry" />
        </mxCell>
        <mxCell id="pc_kvRpI7iRuMpzhnwKP-40" value="pattern" style="text;strokeColor=none;fillColor=none;align=left;verticalAlign=top;spacingLeft=4;spacingRight=4;overflow=hidden;rotatable=0;points=[[0,0.5],[1,0.5]];portConstraint=eastwest;" vertex="1" parent="pc_kvRpI7iRuMpzhnwKP-38">
          <mxGeometry y="52" width="140" height="26" as="geometry" />
        </mxCell>
        <mxCell id="pc_kvRpI7iRuMpzhnwKP-44" value="replacemet" style="text;strokeColor=none;fillColor=none;align=left;verticalAlign=top;spacingLeft=4;spacingRight=4;overflow=hidden;rotatable=0;points=[[0,0.5],[1,0.5]];portConstraint=eastwest;" vertex="1" parent="pc_kvRpI7iRuMpzhnwKP-38">
          <mxGeometry y="78" width="140" height="26" as="geometry" />
        </mxCell>
        <mxCell id="pc_kvRpI7iRuMpzhnwKP-43" style="edgeStyle=orthogonalEdgeStyle;rounded=0;orthogonalLoop=1;jettySize=auto;html=1;entryX=1;entryY=0.5;entryDx=0;entryDy=0;" edge="1" parent="l8JqauWSiTEtrcUZMcMG-1" source="pc_kvRpI7iRuMpzhnwKP-42" target="pc_kvRpI7iRuMpzhnwKP-40">
          <mxGeometry relative="1" as="geometry">
            <mxPoint x="1140" y="100" as="targetPoint" />
          </mxGeometry>
        </mxCell>
        <mxCell id="pc_kvRpI7iRuMpzhnwKP-42" value="open_dt" style="text;html=1;resizable=0;autosize=1;align=center;verticalAlign=middle;points=[];fillColor=none;strokeColor=none;rounded=0;" vertex="1" parent="l8JqauWSiTEtrcUZMcMG-1">
          <mxGeometry x="1161" y="115" width="60" height="20" as="geometry" />
        </mxCell>
        <mxCell id="pc_kvRpI7iRuMpzhnwKP-46" style="edgeStyle=orthogonalEdgeStyle;rounded=0;orthogonalLoop=1;jettySize=auto;html=1;entryX=1;entryY=0.5;entryDx=0;entryDy=0;" edge="1" parent="l8JqauWSiTEtrcUZMcMG-1" source="pc_kvRpI7iRuMpzhnwKP-45" target="pc_kvRpI7iRuMpzhnwKP-44">
          <mxGeometry relative="1" as="geometry" />
        </mxCell>
        <mxCell id="pc_kvRpI7iRuMpzhnwKP-45" value="opent_dt between :param1 and param2" style="text;html=1;resizable=0;autosize=1;align=center;verticalAlign=middle;points=[];fillColor=none;strokeColor=none;rounded=0;" vertex="1" parent="l8JqauWSiTEtrcUZMcMG-1">
          <mxGeometry x="1160" y="141" width="230" height="20" as="geometry" />
        </mxCell>
        <mxCell id="pc_kvRpI7iRuMpzhnwKP-47" value="DEFAULT" style="swimlane;fontStyle=0;childLayout=stackLayout;horizontal=1;startSize=26;fillColor=none;horizontalStack=0;resizeParent=1;resizeParentMax=0;resizeLast=0;collapsible=1;marginBottom=0;" vertex="1" parent="l8JqauWSiTEtrcUZMcMG-1">
          <mxGeometry x="960" y="210" width="140" height="104" as="geometry" />
        </mxCell>
        <mxCell id="pc_kvRpI7iRuMpzhnwKP-48" value="ID" style="text;strokeColor=none;fillColor=none;align=left;verticalAlign=top;spacingLeft=4;spacingRight=4;overflow=hidden;rotatable=0;points=[[0,0.5],[1,0.5]];portConstraint=eastwest;" vertex="1" parent="pc_kvRpI7iRuMpzhnwKP-47">
          <mxGeometry y="26" width="140" height="26" as="geometry" />
        </mxCell>
        <mxCell id="pc_kvRpI7iRuMpzhnwKP-49" value="param1" style="text;strokeColor=none;fillColor=none;align=left;verticalAlign=top;spacingLeft=4;spacingRight=4;overflow=hidden;rotatable=0;points=[[0,0.5],[1,0.5]];portConstraint=eastwest;" vertex="1" parent="pc_kvRpI7iRuMpzhnwKP-47">
          <mxGeometry y="52" width="140" height="26" as="geometry" />
        </mxCell>
        <mxCell id="pc_kvRpI7iRuMpzhnwKP-50" value="param2" style="text;strokeColor=none;fillColor=none;align=left;verticalAlign=top;spacingLeft=4;spacingRight=4;overflow=hidden;rotatable=0;points=[[0,0.5],[1,0.5]];portConstraint=eastwest;" vertex="1" parent="pc_kvRpI7iRuMpzhnwKP-47">
          <mxGeometry y="78" width="140" height="26" as="geometry" />
        </mxCell>
        <mxCell id="pc_kvRpI7iRuMpzhnwKP-51" style="edgeStyle=orthogonalEdgeStyle;rounded=0;orthogonalLoop=1;jettySize=auto;html=1;entryX=0;entryY=0.5;entryDx=0;entryDy=0;" edge="1" parent="l8JqauWSiTEtrcUZMcMG-1" source="pc_kvRpI7iRuMpzhnwKP-48" target="pc_kvRpI7iRuMpzhnwKP-39">
          <mxGeometry relative="1" as="geometry" />
        </mxCell>
        <mxCell id="pc_kvRpI7iRuMpzhnwKP-53" style="edgeStyle=orthogonalEdgeStyle;rounded=0;orthogonalLoop=1;jettySize=auto;html=1;entryX=1;entryY=0.5;entryDx=0;entryDy=0;" edge="1" parent="l8JqauWSiTEtrcUZMcMG-1" source="pc_kvRpI7iRuMpzhnwKP-52" target="pc_kvRpI7iRuMpzhnwKP-49">
          <mxGeometry relative="1" as="geometry" />
        </mxCell>
        <mxCell id="pc_kvRpI7iRuMpzhnwKP-54" style="edgeStyle=orthogonalEdgeStyle;rounded=0;orthogonalLoop=1;jettySize=auto;html=1;entryX=1;entryY=0.5;entryDx=0;entryDy=0;" edge="1" parent="l8JqauWSiTEtrcUZMcMG-1" source="pc_kvRpI7iRuMpzhnwKP-52" target="pc_kvRpI7iRuMpzhnwKP-50">
          <mxGeometry relative="1" as="geometry" />
        </mxCell>
        <mxCell id="pc_kvRpI7iRuMpzhnwKP-52" value="current_date" style="text;html=1;resizable=0;autosize=1;align=center;verticalAlign=middle;points=[];fillColor=none;strokeColor=none;rounded=0;" vertex="1" parent="l8JqauWSiTEtrcUZMcMG-1">
          <mxGeometry x="1168" y="280" width="80" height="20" as="geometry" />
        </mxCell>
        <mxCell id="pc_kvRpI7iRuMpzhnwKP-55" value="USER_SETTINGS" style="swimlane;fontStyle=0;childLayout=stackLayout;horizontal=1;startSize=26;fillColor=none;horizontalStack=0;resizeParent=1;resizeParentMax=0;resizeLast=0;collapsible=1;marginBottom=0;" vertex="1" parent="l8JqauWSiTEtrcUZMcMG-1">
          <mxGeometry x="960" y="358" width="140" height="130" as="geometry" />
        </mxCell>
        <mxCell id="pc_kvRpI7iRuMpzhnwKP-56" value="ID" style="text;strokeColor=none;fillColor=none;align=left;verticalAlign=top;spacingLeft=4;spacingRight=4;overflow=hidden;rotatable=0;points=[[0,0.5],[1,0.5]];portConstraint=eastwest;" vertex="1" parent="pc_kvRpI7iRuMpzhnwKP-55">
          <mxGeometry y="26" width="140" height="26" as="geometry" />
        </mxCell>
        <mxCell id="pc_kvRpI7iRuMpzhnwKP-57" value="ID_REPORT" style="text;strokeColor=none;fillColor=none;align=left;verticalAlign=top;spacingLeft=4;spacingRight=4;overflow=hidden;rotatable=0;points=[[0,0.5],[1,0.5]];portConstraint=eastwest;" vertex="1" parent="pc_kvRpI7iRuMpzhnwKP-55">
          <mxGeometry y="52" width="140" height="26" as="geometry" />
        </mxCell>
        <mxCell id="pc_kvRpI7iRuMpzhnwKP-58" value="PARAM1" style="text;strokeColor=none;fillColor=none;align=left;verticalAlign=top;spacingLeft=4;spacingRight=4;overflow=hidden;rotatable=0;points=[[0,0.5],[1,0.5]];portConstraint=eastwest;" vertex="1" parent="pc_kvRpI7iRuMpzhnwKP-55">
          <mxGeometry y="78" width="140" height="26" as="geometry" />
        </mxCell>
        <mxCell id="pc_kvRpI7iRuMpzhnwKP-61" value="PARAM2" style="text;strokeColor=none;fillColor=none;align=left;verticalAlign=top;spacingLeft=4;spacingRight=4;overflow=hidden;rotatable=0;points=[[0,0.5],[1,0.5]];portConstraint=eastwest;" vertex="1" parent="pc_kvRpI7iRuMpzhnwKP-55">
          <mxGeometry y="104" width="140" height="26" as="geometry" />
        </mxCell>
        <mxCell id="pc_kvRpI7iRuMpzhnwKP-59" style="edgeStyle=orthogonalEdgeStyle;rounded=0;orthogonalLoop=1;jettySize=auto;html=1;entryX=0;entryY=0.5;entryDx=0;entryDy=0;" edge="1" parent="l8JqauWSiTEtrcUZMcMG-1" source="pc_kvRpI7iRuMpzhnwKP-56" target="pc_kvRpI7iRuMpzhnwKP-39">
          <mxGeometry relative="1" as="geometry" />
        </mxCell>
        <mxCell id="pc_kvRpI7iRuMpzhnwKP-60" style="edgeStyle=orthogonalEdgeStyle;rounded=0;orthogonalLoop=1;jettySize=auto;html=1;entryX=1;entryY=0.5;entryDx=0;entryDy=0;" edge="1" parent="l8JqauWSiTEtrcUZMcMG-1" source="pc_kvRpI7iRuMpzhnwKP-57" target="pc_kvRpI7iRuMpzhnwKP-33">
          <mxGeometry relative="1" as="geometry" />
        </mxCell>
        <mxCell id="pc_kvRpI7iRuMpzhnwKP-66" style="edgeStyle=orthogonalEdgeStyle;rounded=0;orthogonalLoop=1;jettySize=auto;html=1;entryX=0;entryY=0.5;entryDx=0;entryDy=0;" edge="1" parent="l8JqauWSiTEtrcUZMcMG-1" source="pc_kvRpI7iRuMpzhnwKP-63" target="pc_kvRpI7iRuMpzhnwKP-39">
          <mxGeometry relative="1" as="geometry" />
        </mxCell>
        <mxCell id="pc_kvRpI7iRuMpzhnwKP-62" value="FROM FRONT" style="swimlane;fontStyle=0;childLayout=stackLayout;horizontal=1;startSize=26;fillColor=none;horizontalStack=0;resizeParent=1;resizeParentMax=0;resizeLast=0;collapsible=1;marginBottom=0;" vertex="1" parent="l8JqauWSiTEtrcUZMcMG-1">
          <mxGeometry x="960" y="530" width="140" height="104" as="geometry" />
        </mxCell>
        <mxCell id="pc_kvRpI7iRuMpzhnwKP-63" value="ID" style="text;strokeColor=none;fillColor=none;align=left;verticalAlign=top;spacingLeft=4;spacingRight=4;overflow=hidden;rotatable=0;points=[[0,0.5],[1,0.5]];portConstraint=eastwest;" vertex="1" parent="pc_kvRpI7iRuMpzhnwKP-62">
          <mxGeometry y="26" width="140" height="26" as="geometry" />
        </mxCell>
        <mxCell id="pc_kvRpI7iRuMpzhnwKP-64" value="PARAM1" style="text;strokeColor=none;fillColor=none;align=left;verticalAlign=top;spacingLeft=4;spacingRight=4;overflow=hidden;rotatable=0;points=[[0,0.5],[1,0.5]];portConstraint=eastwest;" vertex="1" parent="pc_kvRpI7iRuMpzhnwKP-62">
          <mxGeometry y="52" width="140" height="26" as="geometry" />
        </mxCell>
        <mxCell id="pc_kvRpI7iRuMpzhnwKP-65" value="PARAM2" style="text;strokeColor=none;fillColor=none;align=left;verticalAlign=top;spacingLeft=4;spacingRight=4;overflow=hidden;rotatable=0;points=[[0,0.5],[1,0.5]];portConstraint=eastwest;" vertex="1" parent="pc_kvRpI7iRuMpzhnwKP-62">
          <mxGeometry y="78" width="140" height="26" as="geometry" />
        </mxCell>
        <mxCell id="pc_kvRpI7iRuMpzhnwKP-32" value="Classname" style="swimlane;fontStyle=0;childLayout=stackLayout;horizontal=1;startSize=26;fillColor=none;horizontalStack=0;resizeParent=1;resizeParentMax=0;resizeLast=0;collapsible=1;marginBottom=0;" vertex="1" parent="l8JqauWSiTEtrcUZMcMG-1">
          <mxGeometry x="360" y="384" width="140" height="104" as="geometry" />
        </mxCell>
        <mxCell id="pc_kvRpI7iRuMpzhnwKP-33" value="ID" style="text;strokeColor=none;fillColor=none;align=left;verticalAlign=top;spacingLeft=4;spacingRight=4;overflow=hidden;rotatable=0;points=[[0,0.5],[1,0.5]];portConstraint=eastwest;" vertex="1" parent="pc_kvRpI7iRuMpzhnwKP-32">
          <mxGeometry y="26" width="140" height="26" as="geometry" />
        </mxCell>
        <mxCell id="pc_kvRpI7iRuMpzhnwKP-34" value="QUERY : CLOB" style="text;strokeColor=none;fillColor=none;align=left;verticalAlign=top;spacingLeft=4;spacingRight=4;overflow=hidden;rotatable=0;points=[[0,0.5],[1,0.5]];portConstraint=eastwest;" vertex="1" parent="pc_kvRpI7iRuMpzhnwKP-32">
          <mxGeometry y="52" width="140" height="26" as="geometry" />
        </mxCell>
        <mxCell id="pc_kvRpI7iRuMpzhnwKP-35" value="+ field: type" style="text;strokeColor=none;fillColor=none;align=left;verticalAlign=top;spacingLeft=4;spacingRight=4;overflow=hidden;rotatable=0;points=[[0,0.5],[1,0.5]];portConstraint=eastwest;" vertex="1" parent="pc_kvRpI7iRuMpzhnwKP-32">
          <mxGeometry y="78" width="140" height="26" as="geometry" />
        </mxCell>
      </root>
    </mxGraphModel>
  </diagram>
</mxfile>
